<mxfile host="app.diagrams.net" modified="2021-09-07T19:58:02.263Z" agent="5.0 (Windows NT 10.0; Win64; x64) AppleWebKit/537.36 (KHTML, like Gecko) Chrome/92.0.4515.159 Safari/537.36" etag="NyeKNg497vEoUMpJL2fn" version="15.1.1" type="github">
  <diagram id="6I0OCvxSQrVGMHxT2VVA" name="Page-1">
    <mxGraphModel dx="2912" dy="1122" grid="1" gridSize="10" guides="1" tooltips="1" connect="1" arrows="1" fold="1" page="1" pageScale="1" pageWidth="850" pageHeight="1100" math="0" shadow="0">
      <root>
        <mxCell id="0" />
        <mxCell id="1" parent="0" />
        <mxCell id="dKdSaXE48SgPbhcamS2K-30" value="" style="whiteSpace=wrap;html=1;strokeColor=none;strokeWidth=1;fillColor=#f5f5f5;fontSize=14;" parent="1" vertex="1">
          <mxGeometry x="-640" y="880" width="2720" height="300" as="geometry" />
        </mxCell>
        <mxCell id="dKdSaXE48SgPbhcamS2K-31" value="" style="whiteSpace=wrap;html=1;strokeColor=none;strokeWidth=1;fillColor=#f5f5f5;fontSize=14;" parent="1" vertex="1">
          <mxGeometry x="-640" y="500" width="2720" height="350" as="geometry" />
        </mxCell>
        <mxCell id="dKdSaXE48SgPbhcamS2K-32" value="" style="whiteSpace=wrap;html=1;strokeColor=none;strokeWidth=1;fillColor=#f5f5f5;fontSize=14;" parent="1" vertex="1">
          <mxGeometry x="-640" y="230" width="2720" height="240" as="geometry" />
        </mxCell>
        <mxCell id="dKdSaXE48SgPbhcamS2K-40" value="Service" style="html=1;whiteSpace=wrap;fillColor=#AFFFAF;shape=mxgraph.archimate3.service;fontSize=14;" parent="1" vertex="1">
          <mxGeometry x="867.5" y="990" width="150" height="50" as="geometry" />
        </mxCell>
        <mxCell id="dKdSaXE48SgPbhcamS2K-47" value="What are the &#xa;properties of a &#xa;List?" style="shape=component;align=center;fillColor=#99ffff;gradientColor=none;fontSize=14;" parent="1" vertex="1">
          <mxGeometry x="230" y="530" width="185" height="80" as="geometry" />
        </mxCell>
        <mxCell id="dKdSaXE48SgPbhcamS2K-49" value="What are the &#xa;Properties of a &#xa;ListItem" style="shape=component;align=center;fillColor=#99ffff;gradientColor=none;fontSize=14;" parent="1" vertex="1">
          <mxGeometry x="440" y="530" width="185" height="80" as="geometry" />
        </mxCell>
        <mxCell id="dKdSaXE48SgPbhcamS2K-51" value="Does remove mean &#xa;delete, or inactivate?" style="shape=component;align=center;fillColor=#99ffff;gradientColor=none;fontSize=14;" parent="1" vertex="1">
          <mxGeometry x="650" y="530" width="185" height="80" as="geometry" />
        </mxCell>
        <mxCell id="dKdSaXE48SgPbhcamS2K-53" value="Who else can VIEW&#xa;Lists?" style="shape=component;align=center;fillColor=#99ffff;gradientColor=none;fontSize=14;" parent="1" vertex="1">
          <mxGeometry x="850" y="530" width="185" height="80" as="geometry" />
        </mxCell>
        <mxCell id="dKdSaXE48SgPbhcamS2K-54" value="Create a New List" style="html=1;whiteSpace=wrap;fillColor=#ffff99;shape=mxgraph.archimate3.application;appType=func;archiType=rounded;fontSize=14;" parent="1" vertex="1">
          <mxGeometry x="230" y="313" width="150" height="75" as="geometry" />
        </mxCell>
        <mxCell id="dKdSaXE48SgPbhcamS2K-56" value="Remove an Item from a list they created" style="html=1;whiteSpace=wrap;fillColor=#ffff99;shape=mxgraph.archimate3.application;appType=event;archiType=rounded;fontSize=14;" parent="1" vertex="1">
          <mxGeometry x="650" y="313" width="150" height="75" as="geometry" />
        </mxCell>
        <mxCell id="dKdSaXE48SgPbhcamS2K-57" value="View lists they created" style="html=1;whiteSpace=wrap;fillColor=#ffff99;shape=mxgraph.archimate3.application;appType=proc;archiType=rounded;fontSize=14;" parent="1" vertex="1">
          <mxGeometry x="850" y="313" width="150" height="75" as="geometry" />
        </mxCell>
        <mxCell id="dKdSaXE48SgPbhcamS2K-63" value="Honeydew feature map" style="text;strokeColor=none;fillColor=none;html=1;fontSize=24;fontStyle=1;verticalAlign=middle;align=center;" parent="1" vertex="1">
          <mxGeometry x="50" y="70" width="1590" height="40" as="geometry" />
        </mxCell>
        <mxCell id="UJONmov9BAed16g93MeG-1" value="&lt;h1&gt;Who&lt;/h1&gt;&lt;p&gt;* Task Master&lt;/p&gt;&lt;p&gt;* Task Doer&lt;/p&gt;&lt;p&gt;* Friend of Task Doer&lt;/p&gt;" style="text;html=1;strokeColor=none;fillColor=none;spacing=5;spacingTop=-20;whiteSpace=wrap;overflow=hidden;rounded=0;" parent="1" vertex="1">
          <mxGeometry x="200" y="110" width="190" height="120" as="geometry" />
        </mxCell>
        <mxCell id="UJONmov9BAed16g93MeG-4" value="View List Items on lists they created" style="html=1;whiteSpace=wrap;fillColor=#ffff99;shape=mxgraph.archimate3.application;appType=proc;archiType=rounded;fontSize=14;" parent="1" vertex="1">
          <mxGeometry x="1050" y="312.5" width="150" height="75" as="geometry" />
        </mxCell>
        <mxCell id="UJONmov9BAed16g93MeG-5" value="What do you see&#xa;when you view an &#xa;item?" style="shape=component;align=center;fillColor=#99ffff;gradientColor=none;fontSize=14;" parent="1" vertex="1">
          <mxGeometry x="1050" y="530" width="185" height="80" as="geometry" />
        </mxCell>
        <mxCell id="UJONmov9BAed16g93MeG-6" value="Feature" style="text;html=1;strokeColor=none;fillColor=none;align=center;verticalAlign=middle;whiteSpace=wrap;rounded=0;" parent="1" vertex="1">
          <mxGeometry x="30" y="260" width="40" height="20" as="geometry" />
        </mxCell>
        <mxCell id="UJONmov9BAed16g93MeG-7" value="&lt;font style=&quot;font-size: 18px&quot;&gt;As a Task Master, I want the ability to:&lt;/font&gt;" style="text;html=1;strokeColor=none;fillColor=none;align=center;verticalAlign=middle;whiteSpace=wrap;rounded=0;" parent="1" vertex="1">
          <mxGeometry x="629" y="260" width="450" height="20" as="geometry" />
        </mxCell>
        <mxCell id="UJONmov9BAed16g93MeG-9" value="Add an Item to a List they created" style="html=1;whiteSpace=wrap;fillColor=#ffff99;shape=mxgraph.archimate3.application;appType=func;archiType=rounded;fontSize=14;" parent="1" vertex="1">
          <mxGeometry x="440" y="313" width="150" height="75" as="geometry" />
        </mxCell>
        <mxCell id="UJONmov9BAed16g93MeG-10" value="Delete a list they created" style="html=1;whiteSpace=wrap;fillColor=#ffff99;shape=mxgraph.archimate3.application;appType=func;archiType=rounded;fontSize=14;" parent="1" vertex="1">
          <mxGeometry x="1250" y="312.5" width="150" height="75" as="geometry" />
        </mxCell>
        <mxCell id="UJONmov9BAed16g93MeG-11" value="What do you see &#xa;when you View Lists" style="shape=component;align=center;fillColor=#99ffff;gradientColor=none;fontSize=14;" parent="1" vertex="1">
          <mxGeometry x="850" y="630" width="185" height="80" as="geometry" />
        </mxCell>
        <mxCell id="UJONmov9BAed16g93MeG-12" value="If you delete a list,&#xa;What happens to it&#39;s &#xa;Items?" style="shape=component;align=center;fillColor=#99ffff;gradientColor=none;fontSize=14;" parent="1" vertex="1">
          <mxGeometry x="1250" y="530" width="185" height="80" as="geometry" />
        </mxCell>
        <mxCell id="UJONmov9BAed16g93MeG-13" value="assign a reward for completion of an item they created" style="html=1;whiteSpace=wrap;fillColor=#ffff99;shape=mxgraph.archimate3.application;appType=func;archiType=rounded;fontSize=14;" parent="1" vertex="1">
          <mxGeometry x="1450" y="312.5" width="150" height="75" as="geometry" />
        </mxCell>
        <mxCell id="UJONmov9BAed16g93MeG-14" value="List" style="swimlane;fontStyle=0;childLayout=stackLayout;horizontal=1;startSize=26;horizontalStack=0;resizeParent=1;resizeParentMax=0;resizeLast=0;collapsible=1;marginBottom=0;" parent="1" vertex="1">
          <mxGeometry x="252.5" y="916" width="140" height="130" as="geometry" />
        </mxCell>
        <mxCell id="UJONmov9BAed16g93MeG-15" value="Owner: userId" style="text;strokeColor=none;fillColor=none;align=left;verticalAlign=top;spacingLeft=4;spacingRight=4;overflow=hidden;rotatable=0;points=[[0,0.5],[1,0.5]];portConstraint=eastwest;" parent="UJONmov9BAed16g93MeG-14" vertex="1">
          <mxGeometry y="26" width="140" height="26" as="geometry" />
        </mxCell>
        <mxCell id="UJONmov9BAed16g93MeG-48" value="ListId" style="text;strokeColor=none;fillColor=none;align=left;verticalAlign=top;spacingLeft=4;spacingRight=4;overflow=hidden;rotatable=0;points=[[0,0.5],[1,0.5]];portConstraint=eastwest;" parent="UJONmov9BAed16g93MeG-14" vertex="1">
          <mxGeometry y="52" width="140" height="26" as="geometry" />
        </mxCell>
        <mxCell id="UJONmov9BAed16g93MeG-16" value="Title" style="text;strokeColor=none;fillColor=none;align=left;verticalAlign=top;spacingLeft=4;spacingRight=4;overflow=hidden;rotatable=0;points=[[0,0.5],[1,0.5]];portConstraint=eastwest;" parent="UJONmov9BAed16g93MeG-14" vertex="1">
          <mxGeometry y="78" width="140" height="26" as="geometry" />
        </mxCell>
        <mxCell id="UJONmov9BAed16g93MeG-17" value="Created Date" style="text;strokeColor=none;fillColor=none;align=left;verticalAlign=top;spacingLeft=4;spacingRight=4;overflow=hidden;rotatable=0;points=[[0,0.5],[1,0.5]];portConstraint=eastwest;" parent="UJONmov9BAed16g93MeG-14" vertex="1">
          <mxGeometry y="104" width="140" height="26" as="geometry" />
        </mxCell>
        <mxCell id="UJONmov9BAed16g93MeG-19" value="Login" style="html=1;whiteSpace=wrap;fillColor=#ffff99;shape=mxgraph.archimate3.application;appType=func;archiType=rounded;fontSize=14;" parent="1" vertex="1">
          <mxGeometry x="-420" y="312" width="150" height="75" as="geometry" />
        </mxCell>
        <mxCell id="UJONmov9BAed16g93MeG-20" value="Sign up" style="html=1;whiteSpace=wrap;fillColor=#ffff99;shape=mxgraph.archimate3.application;appType=func;archiType=rounded;fontSize=14;" parent="1" vertex="1">
          <mxGeometry x="-630" y="312.5" width="150" height="75" as="geometry" />
        </mxCell>
        <mxCell id="UJONmov9BAed16g93MeG-21" value="Request Password Reset" style="html=1;whiteSpace=wrap;fillColor=#ffff99;shape=mxgraph.archimate3.application;appType=func;archiType=rounded;fontSize=14;" parent="1" vertex="1">
          <mxGeometry x="-200" y="312.5" width="150" height="75" as="geometry" />
        </mxCell>
        <mxCell id="UJONmov9BAed16g93MeG-22" value="Create User" style="shape=component;align=center;fillColor=#99ffff;gradientColor=none;fontSize=14;" parent="1" vertex="1">
          <mxGeometry x="-625" y="530" width="185" height="80" as="geometry" />
        </mxCell>
        <mxCell id="UJONmov9BAed16g93MeG-23" value="What properties &#xa;does a user have" style="shape=component;align=center;fillColor=#99ffff;gradientColor=none;fontSize=14;" parent="1" vertex="1">
          <mxGeometry x="-630" y="630" width="185" height="80" as="geometry" />
        </mxCell>
        <mxCell id="UJONmov9BAed16g93MeG-24" value="User" style="swimlane;fontStyle=0;childLayout=stackLayout;horizontal=1;startSize=26;horizontalStack=0;resizeParent=1;resizeParentMax=0;resizeLast=0;collapsible=1;marginBottom=0;" parent="1" vertex="1">
          <mxGeometry x="-612" y="903" width="132" height="182" as="geometry" />
        </mxCell>
        <mxCell id="UJONmov9BAed16g93MeG-47" value="DisplayName" style="text;strokeColor=none;fillColor=none;align=left;verticalAlign=top;spacingLeft=4;spacingRight=4;overflow=hidden;rotatable=0;points=[[0,0.5],[1,0.5]];portConstraint=eastwest;" parent="UJONmov9BAed16g93MeG-24" vertex="1">
          <mxGeometry y="26" width="132" height="26" as="geometry" />
        </mxCell>
        <mxCell id="UJONmov9BAed16g93MeG-25" value="UserName" style="text;strokeColor=none;fillColor=none;align=left;verticalAlign=top;spacingLeft=4;spacingRight=4;overflow=hidden;rotatable=0;points=[[0,0.5],[1,0.5]];portConstraint=eastwest;" parent="UJONmov9BAed16g93MeG-24" vertex="1">
          <mxGeometry y="52" width="132" height="26" as="geometry" />
        </mxCell>
        <mxCell id="UJONmov9BAed16g93MeG-26" value="Password" style="text;strokeColor=none;fillColor=none;align=left;verticalAlign=top;spacingLeft=4;spacingRight=4;overflow=hidden;rotatable=0;points=[[0,0.5],[1,0.5]];portConstraint=eastwest;" parent="UJONmov9BAed16g93MeG-24" vertex="1">
          <mxGeometry y="78" width="132" height="26" as="geometry" />
        </mxCell>
        <mxCell id="UJONmov9BAed16g93MeG-27" value="EmailAddress" style="text;strokeColor=none;fillColor=none;align=left;verticalAlign=top;spacingLeft=4;spacingRight=4;overflow=hidden;rotatable=0;points=[[0,0.5],[1,0.5]];portConstraint=eastwest;" parent="UJONmov9BAed16g93MeG-24" vertex="1">
          <mxGeometry y="104" width="132" height="26" as="geometry" />
        </mxCell>
        <mxCell id="UJONmov9BAed16g93MeG-28" value="UserId" style="text;strokeColor=none;fillColor=none;align=left;verticalAlign=top;spacingLeft=4;spacingRight=4;overflow=hidden;rotatable=0;points=[[0,0.5],[1,0.5]];portConstraint=eastwest;" parent="UJONmov9BAed16g93MeG-24" vertex="1">
          <mxGeometry y="130" width="132" height="26" as="geometry" />
        </mxCell>
        <mxCell id="UJONmov9BAed16g93MeG-45" value="UserRole" style="text;strokeColor=none;fillColor=none;align=left;verticalAlign=top;spacingLeft=4;spacingRight=4;overflow=hidden;rotatable=0;points=[[0,0.5],[1,0.5]];portConstraint=eastwest;" parent="UJONmov9BAed16g93MeG-24" vertex="1">
          <mxGeometry y="156" width="132" height="26" as="geometry" />
        </mxCell>
        <mxCell id="UJONmov9BAed16g93MeG-29" value="Get User By &#xa;User Name" style="shape=component;align=center;fillColor=#99ffff;gradientColor=none;fontSize=14;" parent="1" vertex="1">
          <mxGeometry x="-415" y="530" width="185" height="80" as="geometry" />
        </mxCell>
        <mxCell id="UJONmov9BAed16g93MeG-30" value="Validate User Password" style="shape=component;align=center;fillColor=#99ffff;gradientColor=none;fontSize=14;" parent="1" vertex="1">
          <mxGeometry x="-415" y="620" width="185" height="80" as="geometry" />
        </mxCell>
        <mxCell id="UJONmov9BAed16g93MeG-31" value="Create Session" style="shape=component;align=center;fillColor=#99ffff;gradientColor=none;fontSize=14;" parent="1" vertex="1">
          <mxGeometry x="-415" y="710" width="185" height="80" as="geometry" />
        </mxCell>
        <mxCell id="UJONmov9BAed16g93MeG-32" value="Send Link to Email &#xa;With session token" style="shape=component;align=center;fillColor=#99ffff;gradientColor=none;fontSize=14;" parent="1" vertex="1">
          <mxGeometry x="-212.5" y="620" width="185" height="80" as="geometry" />
        </mxCell>
        <mxCell id="UJONmov9BAed16g93MeG-33" value="Set new password" style="html=1;whiteSpace=wrap;fillColor=#ffff99;shape=mxgraph.archimate3.application;appType=func;archiType=rounded;fontSize=14;" parent="1" vertex="1">
          <mxGeometry y="313" width="150" height="75" as="geometry" />
        </mxCell>
        <mxCell id="UJONmov9BAed16g93MeG-34" value="Validate Old Password" style="shape=component;align=center;fillColor=#99ffff;gradientColor=none;fontSize=14;" parent="1" vertex="1">
          <mxGeometry y="520" width="185" height="80" as="geometry" />
        </mxCell>
        <mxCell id="UJONmov9BAed16g93MeG-35" value="Update User" style="shape=component;align=center;fillColor=#99ffff;gradientColor=none;fontSize=14;" parent="1" vertex="1">
          <mxGeometry y="620" width="185" height="80" as="geometry" />
        </mxCell>
        <mxCell id="UJONmov9BAed16g93MeG-36" value="User Management" style="swimlane;horizontal=0;" parent="1" vertex="1">
          <mxGeometry x="-670" y="290" width="880" height="880" as="geometry" />
        </mxCell>
        <mxCell id="UJONmov9BAed16g93MeG-41" value="SessionToken" style="swimlane;fontStyle=0;childLayout=stackLayout;horizontal=1;startSize=26;horizontalStack=0;resizeParent=1;resizeParentMax=0;resizeLast=0;collapsible=1;marginBottom=0;" parent="UJONmov9BAed16g93MeG-36" vertex="1">
          <mxGeometry x="250" y="613" width="140" height="104" as="geometry" />
        </mxCell>
        <mxCell id="UJONmov9BAed16g93MeG-42" value="UserId" style="text;strokeColor=none;fillColor=none;align=left;verticalAlign=top;spacingLeft=4;spacingRight=4;overflow=hidden;rotatable=0;points=[[0,0.5],[1,0.5]];portConstraint=eastwest;" parent="UJONmov9BAed16g93MeG-41" vertex="1">
          <mxGeometry y="26" width="140" height="26" as="geometry" />
        </mxCell>
        <mxCell id="UJONmov9BAed16g93MeG-43" value="SessionId" style="text;strokeColor=none;fillColor=none;align=left;verticalAlign=top;spacingLeft=4;spacingRight=4;overflow=hidden;rotatable=0;points=[[0,0.5],[1,0.5]];portConstraint=eastwest;" parent="UJONmov9BAed16g93MeG-41" vertex="1">
          <mxGeometry y="52" width="140" height="26" as="geometry" />
        </mxCell>
        <mxCell id="UJONmov9BAed16g93MeG-44" value="ExpirationDate" style="text;strokeColor=none;fillColor=none;align=left;verticalAlign=top;spacingLeft=4;spacingRight=4;overflow=hidden;rotatable=0;points=[[0,0.5],[1,0.5]];portConstraint=eastwest;" parent="UJONmov9BAed16g93MeG-41" vertex="1">
          <mxGeometry y="78" width="140" height="26" as="geometry" />
        </mxCell>
        <mxCell id="UJONmov9BAed16g93MeG-37" value="How many lists should &#xa;users be allowed?" style="shape=component;align=center;fillColor=#99ffff;gradientColor=none;fontSize=14;" parent="1" vertex="1">
          <mxGeometry x="230" y="620" width="185" height="80" as="geometry" />
        </mxCell>
        <mxCell id="UJONmov9BAed16g93MeG-39" value="List Management" style="swimlane;horizontal=0;" parent="1" vertex="1">
          <mxGeometry x="210" y="290" width="1870" height="880" as="geometry" />
        </mxCell>
        <mxCell id="dKdSaXE48SgPbhcamS2K-45" value="Service" style="html=1;whiteSpace=wrap;fillColor=#AFFFAF;shape=mxgraph.archimate3.service;fontSize=14;" parent="UJONmov9BAed16g93MeG-39" vertex="1">
          <mxGeometry x="650" y="620" width="150" height="50" as="geometry" />
        </mxCell>
        <mxCell id="UJONmov9BAed16g93MeG-49" value="List Item" style="swimlane;fontStyle=0;childLayout=stackLayout;horizontal=1;startSize=26;horizontalStack=0;resizeParent=1;resizeParentMax=0;resizeLast=0;collapsible=1;marginBottom=0;" parent="UJONmov9BAed16g93MeG-39" vertex="1">
          <mxGeometry x="320" y="626" width="140" height="234" as="geometry" />
        </mxCell>
        <mxCell id="UJONmov9BAed16g93MeG-50" value="ParentListId" style="text;strokeColor=none;fillColor=none;align=left;verticalAlign=top;spacingLeft=4;spacingRight=4;overflow=hidden;rotatable=0;points=[[0,0.5],[1,0.5]];portConstraint=eastwest;" parent="UJONmov9BAed16g93MeG-49" vertex="1">
          <mxGeometry y="26" width="140" height="26" as="geometry" />
        </mxCell>
        <mxCell id="UJONmov9BAed16g93MeG-51" value="Title" style="text;strokeColor=none;fillColor=none;align=left;verticalAlign=top;spacingLeft=4;spacingRight=4;overflow=hidden;rotatable=0;points=[[0,0.5],[1,0.5]];portConstraint=eastwest;" parent="UJONmov9BAed16g93MeG-49" vertex="1">
          <mxGeometry y="52" width="140" height="26" as="geometry" />
        </mxCell>
        <mxCell id="UJONmov9BAed16g93MeG-52" value="Description" style="text;strokeColor=none;fillColor=none;align=left;verticalAlign=top;spacingLeft=4;spacingRight=4;overflow=hidden;rotatable=0;points=[[0,0.5],[1,0.5]];portConstraint=eastwest;" parent="UJONmov9BAed16g93MeG-49" vertex="1">
          <mxGeometry y="78" width="140" height="26" as="geometry" />
        </mxCell>
        <mxCell id="UJONmov9BAed16g93MeG-53" value="CreatedUTC" style="text;strokeColor=none;fillColor=none;align=left;verticalAlign=top;spacingLeft=4;spacingRight=4;overflow=hidden;rotatable=0;points=[[0,0.5],[1,0.5]];portConstraint=eastwest;" parent="UJONmov9BAed16g93MeG-49" vertex="1">
          <mxGeometry y="104" width="140" height="26" as="geometry" />
        </mxCell>
        <mxCell id="UJONmov9BAed16g93MeG-54" value="CompletedUTC" style="text;strokeColor=none;fillColor=none;align=left;verticalAlign=top;spacingLeft=4;spacingRight=4;overflow=hidden;rotatable=0;points=[[0,0.5],[1,0.5]];portConstraint=eastwest;" parent="UJONmov9BAed16g93MeG-49" vertex="1">
          <mxGeometry y="130" width="140" height="26" as="geometry" />
        </mxCell>
        <mxCell id="UJONmov9BAed16g93MeG-55" value="Bounty" style="text;strokeColor=none;fillColor=none;align=left;verticalAlign=top;spacingLeft=4;spacingRight=4;overflow=hidden;rotatable=0;points=[[0,0.5],[1,0.5]];portConstraint=eastwest;" parent="UJONmov9BAed16g93MeG-49" vertex="1">
          <mxGeometry y="156" width="140" height="26" as="geometry" />
        </mxCell>
        <mxCell id="UJONmov9BAed16g93MeG-56" value="Assigned Doer" style="text;strokeColor=none;fillColor=none;align=left;verticalAlign=top;spacingLeft=4;spacingRight=4;overflow=hidden;rotatable=0;points=[[0,0.5],[1,0.5]];portConstraint=eastwest;" parent="UJONmov9BAed16g93MeG-49" vertex="1">
          <mxGeometry y="182" width="140" height="26" as="geometry" />
        </mxCell>
        <mxCell id="UJONmov9BAed16g93MeG-57" value="Pictures" style="text;strokeColor=none;fillColor=none;align=left;verticalAlign=top;spacingLeft=4;spacingRight=4;overflow=hidden;rotatable=0;points=[[0,0.5],[1,0.5]];portConstraint=eastwest;" parent="UJONmov9BAed16g93MeG-49" vertex="1">
          <mxGeometry y="208" width="140" height="26" as="geometry" />
        </mxCell>
        <mxCell id="UJONmov9BAed16g93MeG-40" value="Validate Session Token" style="shape=component;align=center;fillColor=#99ffff;gradientColor=none;fontSize=14;" parent="1" vertex="1">
          <mxGeometry y="720" width="185" height="80" as="geometry" />
        </mxCell>
        <mxCell id="UJONmov9BAed16g93MeG-46" value="Share a List &lt;br&gt;with a Task Doer" style="html=1;whiteSpace=wrap;fillColor=#ffff99;shape=mxgraph.archimate3.application;appType=func;archiType=rounded;fontSize=14;" parent="1" vertex="1">
          <mxGeometry x="1650" y="312" width="150" height="75" as="geometry" />
        </mxCell>
        <mxCell id="UJONmov9BAed16g93MeG-58" value="Befriend a Task Doer" style="html=1;whiteSpace=wrap;fillColor=#ffff99;shape=mxgraph.archimate3.application;appType=func;archiType=rounded;fontSize=14;" parent="1" vertex="1">
          <mxGeometry x="1850" y="313" width="150" height="75" as="geometry" />
        </mxCell>
        <mxCell id="UJONmov9BAed16g93MeG-59" value="" style="whiteSpace=wrap;html=1;strokeColor=none;strokeWidth=1;fillColor=#f5f5f5;fontSize=14;" parent="1" vertex="1">
          <mxGeometry x="-640" y="1280" width="2720" height="240" as="geometry" />
        </mxCell>
        <mxCell id="UJONmov9BAed16g93MeG-60" value="&lt;font style=&quot;font-size: 18px&quot;&gt;As a Task Doer, I need to be able to&lt;/font&gt;" style="text;html=1;strokeColor=none;fillColor=none;align=center;verticalAlign=middle;whiteSpace=wrap;rounded=0;" parent="1" vertex="1">
          <mxGeometry x="739" y="1290" width="340" height="20" as="geometry" />
        </mxCell>
        <mxCell id="UJONmov9BAed16g93MeG-61" value="Search for a list" style="html=1;whiteSpace=wrap;fillColor=#ffff99;shape=mxgraph.archimate3.application;appType=func;archiType=rounded;fontSize=14;" parent="1" vertex="1">
          <mxGeometry x="265" y="1340" width="150" height="75" as="geometry" />
        </mxCell>
        <mxCell id="UJONmov9BAed16g93MeG-62" value="Request permission to do items in a list" style="html=1;whiteSpace=wrap;fillColor=#ffff99;shape=mxgraph.archimate3.application;appType=func;archiType=rounded;fontSize=14;" parent="1" vertex="1">
          <mxGeometry x="460" y="1340" width="150" height="75" as="geometry" />
        </mxCell>
        <mxCell id="UJONmov9BAed16g93MeG-63" value="Assign an item to themselves" style="html=1;whiteSpace=wrap;fillColor=#ffff99;shape=mxgraph.archimate3.application;appType=func;archiType=rounded;fontSize=14;" parent="1" vertex="1">
          <mxGeometry x="660" y="1340" width="150" height="75" as="geometry" />
        </mxCell>
        <mxCell id="UJONmov9BAed16g93MeG-64" value="Complete items assigned to themselves" style="html=1;whiteSpace=wrap;fillColor=#ffff99;shape=mxgraph.archimate3.application;appType=func;archiType=rounded;fontSize=14;" parent="1" vertex="1">
          <mxGeometry x="860" y="1340" width="150" height="75" as="geometry" />
        </mxCell>
        <mxCell id="UJONmov9BAed16g93MeG-65" value="Attach an image or video proof of completion" style="html=1;whiteSpace=wrap;fillColor=#ffff99;shape=mxgraph.archimate3.application;appType=func;archiType=rounded;fontSize=14;" parent="1" vertex="1">
          <mxGeometry x="1060" y="1340" width="150" height="75" as="geometry" />
        </mxCell>
        <mxCell id="UJONmov9BAed16g93MeG-66" value="View Lists of items assigned to them" style="html=1;whiteSpace=wrap;fillColor=#ffff99;shape=mxgraph.archimate3.application;appType=func;archiType=rounded;fontSize=14;" parent="1" vertex="1">
          <mxGeometry x="1260" y="1340" width="150" height="75" as="geometry" />
        </mxCell>
        <mxCell id="UJONmov9BAed16g93MeG-67" value="Befriend a Task Master" style="html=1;whiteSpace=wrap;fillColor=#ffff99;shape=mxgraph.archimate3.application;appType=func;archiType=rounded;fontSize=14;" parent="1" vertex="1">
          <mxGeometry x="1460" y="1340" width="150" height="75" as="geometry" />
        </mxCell>
        <mxCell id="UJONmov9BAed16g93MeG-68" value="" style="whiteSpace=wrap;html=1;strokeColor=none;strokeWidth=1;fillColor=#f5f5f5;fontSize=14;" parent="1" vertex="1">
          <mxGeometry x="-640" y="1550" width="2720" height="240" as="geometry" />
        </mxCell>
        <mxCell id="UJONmov9BAed16g93MeG-69" value="Get Lists by ??" style="shape=component;align=center;fillColor=#99ffff;gradientColor=none;fontSize=14;" parent="1" vertex="1">
          <mxGeometry x="230" y="1570" width="185" height="80" as="geometry" />
        </mxCell>
        <mxCell id="UJONmov9BAed16g93MeG-70" value="View Friend requests" style="html=1;whiteSpace=wrap;fillColor=#ffff99;shape=mxgraph.archimate3.application;appType=func;archiType=rounded;fontSize=14;" parent="1" vertex="1">
          <mxGeometry x="1660" y="1340" width="150" height="75" as="geometry" />
        </mxCell>
        <mxCell id="UJONmov9BAed16g93MeG-71" value="Accept/Reject Friend requests" style="html=1;whiteSpace=wrap;fillColor=#ffff99;shape=mxgraph.archimate3.application;appType=func;archiType=rounded;fontSize=14;" parent="1" vertex="1">
          <mxGeometry x="1860" y="1340" width="150" height="75" as="geometry" />
        </mxCell>
        <mxCell id="UJONmov9BAed16g93MeG-72" value="View Friend requests" style="html=1;whiteSpace=wrap;fillColor=#ffff99;shape=mxgraph.archimate3.application;appType=func;archiType=rounded;fontSize=14;" parent="1" vertex="1">
          <mxGeometry x="1650" y="395" width="150" height="75" as="geometry" />
        </mxCell>
        <mxCell id="UJONmov9BAed16g93MeG-73" value="Accept/Reject Friend requests" style="html=1;whiteSpace=wrap;fillColor=#ffff99;shape=mxgraph.archimate3.application;appType=func;archiType=rounded;fontSize=14;" parent="1" vertex="1">
          <mxGeometry x="1850" y="395" width="150" height="75" as="geometry" />
        </mxCell>
        <mxCell id="UJONmov9BAed16g93MeG-74" value="&lt;h1&gt;Concept: Friendship&lt;/h1&gt;&lt;p&gt;the relationship between Task Master and Task Doer that allows Doer&#39;s to take action on Master&#39;s list items&lt;/p&gt;" style="text;html=1;strokeColor=none;fillColor=none;spacing=5;spacingTop=-20;whiteSpace=wrap;overflow=hidden;rounded=0;" parent="1" vertex="1">
          <mxGeometry x="1200" y="10" width="290" height="120" as="geometry" />
        </mxCell>
      </root>
    </mxGraphModel>
  </diagram>
</mxfile>
